<svg width="512" height="512" viewBox="0 0 512 512" xmlns="http://www.w3.org/2000/svg" role="img" aria-label="TheCampusHelper app icon">
  <defs>
    <linearGradient id="bg" x1="0" y1="0" x2="1" y2="1">
      <stop offset="0" stop-color="#3b82f6"/>
      <stop offset="1" stop-color="#1e40af"/>
    </linearGradient>
    <linearGradient id="accent" x1="0" y1="0" x2="1" y2="0">
      <stop offset="0" stop-color="#93c5fd" stop-opacity="0.9"/>
      <stop offset="1" stop-color="#ffffff" stop-opacity="0.9"/>
    </linearGradient>
    <filter id="soft" x="-20%" y="-20%" width="140%" height="140%">
      <feGaussianBlur in="SourceAlpha" stdDeviation="8" result="blur"/>
      <feOffset in="blur" dy="6" result="off"/>
      <feColorMatrix in="off" type="matrix" values="0 0 0 0 0  0 0 0 0 0  0 0 0 0 0  0 0 0 0.28 0" result="shadow"/>
      <feMerge>
        <feMergeNode in="shadow"/>
        <feMergeNode in="SourceGraphic"/>
      </feMerge>
    </filter>
  </defs>

  <rect x="0" y="0" width="512" height="512" rx="112" fill="url(#bg)"/>

  <!-- Open-book mark -->
  <g filter="url(#soft)">
    <path
      d="M132 188c0-22 18-40 40-40h96c24 0 46 10 62 26 16-16 38-26 62-26h60c22 0 40 18 40 40v168c0 10-8 18-18 18h-78c-24 0-46 10-62 26-16-16-38-26-62-26H150c-10 0-18-8-18-18V188z"
      fill="#ffffff"
      fill-opacity="0.92"
    />
    <path
      d="M256 174v232"
      stroke="#1e40af"
      stroke-opacity="0.18"
      stroke-width="10"
      stroke-linecap="round"
    />
    <path
      d="M168 220h132M168 258h132M168 296h96"
      stroke="#1e40af"
      stroke-opacity="0.22"
      stroke-width="10"
      stroke-linecap="round"
    />
  </g>

  <!-- Corner accent -->
  <path d="M120 132c32-34 80-54 136-54h6c-58 6-100 26-132 58-10 10-20 22-28 36 4-14 10-28 18-40z" fill="url(#accent)" opacity="0.35"/>

  <!-- Monogram -->
  <text x="256" y="470" text-anchor="middle" font-family="system-ui, -apple-system, Segoe UI, Arial, sans-serif" font-size="64" font-weight="800" fill="#ffffff" fill-opacity="0.92">CH</text>
</svg>
